<mxfile host="app.diagrams.net" modified="2023-10-14T16:27:03.333Z" agent="Mozilla/5.0 (Windows NT 10.0; Win64; x64) AppleWebKit/537.36 (KHTML, like Gecko) Chrome/118.0.0.0 Safari/537.36" etag="YPp8c89azht6w9dfcA5U" version="22.0.4" type="device">
  <diagram name="PÃ¡gina-1" id="2jeUSM-vcoQp9l4ax7Zb">
    <mxGraphModel dx="1674" dy="758" grid="1" gridSize="10" guides="1" tooltips="1" connect="1" arrows="1" fold="1" page="1" pageScale="1" pageWidth="827" pageHeight="1169" math="0" shadow="0">
      <root>
        <mxCell id="0" />
        <mxCell id="1" parent="0" />
        <mxCell id="j0aP1-FZ_BeM2d1vpVYu-2" value="&lt;p style=&quot;margin-top:0cm;text-align:left;line-height:&lt;br/&gt;normal&quot; align=&quot;left&quot; class=&quot;MsoNormal&quot;&gt;TASK&lt;/p&gt;" style="whiteSpace=wrap;html=1;aspect=fixed;" vertex="1" parent="1">
          <mxGeometry x="60" y="280" width="80" height="80" as="geometry" />
        </mxCell>
        <mxCell id="j0aP1-FZ_BeM2d1vpVYu-3" value="&lt;p style=&quot;margin-top:0cm;text-align:left;line-height:&lt;br/&gt;normal&quot; align=&quot;left&quot; class=&quot;MsoNormal&quot;&gt;USERS&lt;br&gt;&lt;/p&gt;" style="whiteSpace=wrap;html=1;aspect=fixed;" vertex="1" parent="1">
          <mxGeometry x="670" y="270" width="80" height="80" as="geometry" />
        </mxCell>
      </root>
    </mxGraphModel>
  </diagram>
</mxfile>
